Coordinates
version=1
nRows=60
nColumns=12
inDegrees=yes

Units are S.I. units (second, meters, Newtons, ...)
Angles are in degrees

endheader
time	SC_y	SC_z	SC_x	AC_y	AC_z	AC_x	GH_y	GH_z	GH_yy	EL_x	PS_y
       0.0              -23.63          5.698          31.99          30.51          3.172           7.07          38.61         -11.24          4.095          42.87           7.77
   0.03315              -23.63          5.702          31.99          30.52          3.172          7.067          38.59         -11.23           4.09          42.88           7.77
    0.0663              -23.63          5.706          31.99          30.52          3.172          7.063          38.57         -11.22          4.085           42.9          7.771
   0.09945              -23.63           5.71          31.98          30.53          3.172          7.059          38.54         -11.21           4.08          42.91          7.772
    0.1326              -23.63          5.715          31.98          30.53          3.172          7.055          38.52         -11.19          4.074          42.92          7.773
    0.1658              -23.63           5.72          31.98          30.54          3.171           7.05           38.5         -11.18          4.068          42.94          7.774
    0.1989              -23.63          5.726          31.98          30.54          3.171          7.046          38.47         -11.16          4.061          42.95          7.775
    0.2321              -23.63          5.731          31.98          30.55          3.171           7.04          38.44         -11.15          4.054          42.97          7.776
    0.2652              -23.63          5.738          31.97          30.55          3.171          7.035          38.41         -11.13          4.047          42.99          7.778
    0.2984              -23.63          5.744          31.97          30.56          3.171          7.029          38.38         -11.11          4.039          43.01          7.779
    0.3315              -23.63          5.751          31.97          30.56          3.171          7.023          38.34         -11.09           4.03          43.03           7.78
    0.3647              -23.63          5.759          31.97          30.57           3.17          7.016           38.3         -11.07          4.021          43.05          7.782
    0.3978              -23.63          5.767          31.96          30.58           3.17          7.009          38.26         -11.04          4.011          43.08          7.784
     0.431              -23.63          5.776          31.96          30.59           3.17          7.001          38.22         -11.02            4.0           43.1          7.786
    0.4641              -23.63          5.786          31.96          30.59           3.17          6.992          38.17         -10.99          3.988          43.13          7.787
    0.4973              -23.63          5.796          31.95           30.6          3.169          6.983          38.12         -10.96          3.976          43.16           7.79
    0.5304              -23.63          5.808          31.95          30.61          3.169          6.973          38.06         -10.93          3.962          43.19          7.792
    0.5636              -23.63           5.82          31.95          30.63          3.169          6.962           38.0         -10.89          3.947          43.23          7.794
    0.5967              -23.63          5.833          31.94          30.64          3.168           6.95          37.93         -10.85          3.931          43.27          7.797
    0.6299              -23.63          5.848          31.94          30.65          3.168          6.937          37.86         -10.81          3.913          43.31            7.8
     0.663              -23.63          5.864          31.93          30.67          3.167          6.923          37.78         -10.77          3.893          43.36          7.804
    0.6962              -23.62          5.882          31.92          30.68          3.167          6.907          37.69         -10.71          3.872          43.41          7.807
    0.7293              -23.62          5.902          31.92           30.7          3.166          6.889           37.6         -10.66          3.848          43.47          7.811
    0.7625              -23.62          5.924          31.91          30.72          3.166           6.87          37.49         -10.59          3.821          43.53          7.816
    0.7956              -23.62          5.948           31.9          30.74          3.165          6.848          37.37         -10.52          3.792           43.6          7.821
    0.8288              -23.62          5.975          31.89          30.77          3.164          6.824          37.23         -10.45          3.759          43.68          7.826
    0.8619              -23.62          6.006          31.88           30.8          3.164          6.797          37.08         -10.36          3.722          43.77          7.833
    0.8951              -23.62           6.04          31.87          30.83          3.163          6.767          36.91         -10.26          3.681          43.87           7.84
    0.9282              -23.62          6.079          31.86          30.86          3.162          6.733          36.72         -10.15          3.634          43.98          7.847
    0.9614              -23.61          6.123          31.84           30.9           3.16          6.694           36.5         -10.02          3.581          44.11          7.856
    0.9945              -23.61          6.173          31.82          30.95          3.159          6.649          36.26         -9.879           3.52          44.26          7.867
     1.028              -23.61           6.23           31.8           31.0          3.157          6.598          35.97         -9.714          3.451          44.43          7.878
     1.061              -23.61          6.297          31.78          31.06          3.156           6.54          35.64         -9.524           3.37          44.62          7.892
     1.094               -23.6          6.374          31.75          31.13          3.153          6.471          35.26         -9.302          3.277          44.84          7.908
     1.127               -23.6          6.464          31.72          31.21          3.151          6.391          34.81         -9.043          3.168          45.11          7.926
      1.16              -23.59           6.57          31.68          31.31          3.148          6.297          34.29         -8.737          3.039          45.42          7.948
     1.193              -23.59          6.697          31.64          31.43          3.145          6.185          33.66         -8.374          2.886          45.79          7.974
     1.227              -23.58          6.848          31.59          31.56           3.14          6.051          32.91         -7.938          2.703          46.23          8.005
      1.26              -23.57          7.032          31.52          31.73          3.135          5.888          32.01         -7.412          2.481          46.76          8.042
     1.293              -23.56          7.256          31.44          31.94          3.129           5.69           30.9         -6.768           2.21          47.42          8.088
     1.326              -23.55          7.532          31.35          32.19          3.122          5.445          29.53         -5.974          1.875          48.22          8.145
     1.359              -23.53          7.877          31.23           32.5          3.112          5.139          27.82         -4.984          1.458          49.23          8.215
     1.392              -23.51          8.311          31.08           32.9            3.1          4.754          25.67         -3.736         0.9329           50.5          8.304
     1.426              -23.49          8.863          30.88           33.4          3.085          4.265          22.94          -2.15         0.2649          52.11          8.417
     1.459              -23.46          9.569          30.64          34.05          3.065          3.639          19.45        -0.1203          -0.59          54.17          8.562
     1.492              -23.42          10.48          30.32          34.87          3.041          2.836          14.96          2.485         -1.687          56.81          8.747
     1.525              -23.36          11.63          29.92          35.93          3.009          1.809           9.23          5.812         -3.088          60.19          8.984
     1.558               -23.3          13.09          29.41          37.26          2.969         0.5188          2.024          9.996         -4.851          64.44          9.282
     1.591              -23.22          14.86          28.79          38.88           2.92         -1.054         -6.758          15.09         -6.998          69.61          9.645
     1.624              -23.12          16.92          28.07          40.75          2.863         -2.877         -16.94           21.0         -9.487          75.61          10.07
     1.658              -23.02          19.15          27.29          42.78          2.802         -4.851         -27.96           27.4         -12.18          82.11          10.52
     1.691              -22.92          21.38          26.51          44.82          2.741         -6.824         -38.98           33.8         -14.88          88.61          10.98
     1.724              -22.83          23.43           25.8          46.69          2.684         -8.647         -49.16          39.71         -17.37          94.61           11.4
     1.757              -22.75          25.21          25.18          48.31          2.635         -10.22         -57.94          44.81         -19.51          99.78          11.76
      1.79              -22.68          26.66          24.67          49.64          2.595         -11.51         -65.15          48.99         -21.28          104.0          12.06
     1.823              -22.63          27.82          24.26           50.7          2.563         -12.54         -70.88          52.32         -22.68          107.4           12.3
     1.856              -22.59          28.73          23.95          51.52          2.538         -13.34         -75.36          54.93         -23.77          110.1          12.48
      1.89              -22.56          29.43           23.7          52.17          2.519         -13.97         -78.86          56.96         -24.63          112.1          12.63
     1.923              -22.53          29.99          23.51          52.67          2.504         -14.46         -81.59          58.54          -25.3          113.7          12.74
     1.956              -22.51          30.42          23.36          53.07          2.492         -14.84         -83.74          59.79         -25.82          115.0          12.83
